<svg width="28" height="28" viewBox="0 0 28 28" fill="none" xmlns="http://www.w3.org/2000/svg">
<g id="&#232;&#191;&#148;&#229;&#155;&#158;&#233;&#161;&#182;&#233;&#131;&#168;">
<path id="Union" fill-rule="evenodd" clip-rule="evenodd" d="M21.65 6C21.8433 6 22 6.1567 22 6.35V7.15C22 7.3433 21.8433 7.5 21.65 7.5L6.35 7.5C6.1567 7.5 6 7.3433 6 7.15V6.35C6 6.1567 6.1567 6 6.35 6H21.65ZM14.875 11.5388L20.8631 14.996C21.0305 15.0926 21.2446 15.0353 21.3412 14.8679L21.7412 14.1751C21.8379 14.0077 21.7805 13.7936 21.6131 13.6969L14.4251 9.54695C14.3364 9.49573 14.2345 9.48776 14.144 9.51651C14.0536 9.48779 13.9518 9.49577 13.8631 9.54698L6.67506 13.697C6.50766 13.7936 6.4503 14.0077 6.54695 14.1751L6.94695 14.8679C7.0436 15.0353 7.25766 15.0927 7.42506 14.996L13.375 11.5608V21.65C13.375 21.8433 13.5317 22 13.725 22H14.525C14.7183 22 14.875 21.8433 14.875 21.65V11.5388Z" fill="#58587D"/>
</g>
</svg>
