<svg width="83" height="40" viewBox="0 0 83 40" fill="none" xmlns="http://www.w3.org/2000/svg">
<g clip-path="url(#clip0_10832_7148)">
<path d="M8.7697 17.7042C8.28243 17.3272 7.7491 17.0654 7.16849 16.92C6.58789 16.7757 5.36728 16.7018 3.5091 16.7018H0.242432V31.7078C0.242432 32.2254 0.661826 32.6448 1.1794 32.6448C1.69698 32.6448 2.11637 32.2254 2.11637 31.7078V25.3697H3.07516C4.9188 25.3697 6.20364 25.2933 6.9297 25.1406C7.65576 24.9878 8.2691 24.726 8.7697 24.3563C9.27031 23.9866 9.65455 23.5175 9.92364 22.9515C10.1915 22.3854 10.3273 21.7466 10.3273 21.0351C10.3273 20.3236 10.1891 19.6848 9.91395 19.1188C9.63758 18.5527 9.25698 18.0812 8.77092 17.703L8.7697 17.7042ZM7.59395 22.8654C7.06304 23.3588 6.06546 23.5915 4.5988 23.5624H2.11516V18.5309H4.72849C7.16849 18.5309 8.38789 19.3588 8.38789 21.0133C8.38789 21.7539 8.12243 22.3709 7.59273 22.8654H7.59395Z" fill="white"/>
<path d="M13.8545 16.7018C13.3369 16.7018 12.9175 17.1212 12.9175 17.6388V31.7078C12.9175 32.2254 13.3369 32.6448 13.8545 32.6448C14.372 32.6448 14.7914 32.2254 14.7914 31.7078V17.6388C14.7914 17.1212 14.372 16.7018 13.8545 16.7018Z" fill="white"/>
<path d="M45.4243 31.1709L38.5746 23.8679L44.6194 18.234C45.0522 17.8303 45.0376 17.1831 44.5431 16.8558C44.1722 16.6109 43.7249 16.6703 43.44 16.9394L37.6825 22.3649V17.6606C37.6825 17.1309 37.2534 16.7018 36.7237 16.7018C36.194 16.7018 35.7649 17.1309 35.7649 17.6606V31.6861C35.7649 32.2158 36.194 32.6449 36.7237 32.6449C37.2534 32.6449 37.6825 32.2158 37.6825 31.6861V25.5879L44.0655 32.3697C44.2303 32.5455 44.4619 32.6449 44.7031 32.6449H44.7867C45.5528 32.6449 45.9491 31.7297 45.4255 31.1709H45.4243Z" fill="white"/>
<path d="M58.3527 17.7042C57.8654 17.3272 57.3321 17.0654 56.7515 16.92C56.1709 16.7757 54.9503 16.7018 53.0921 16.7018H49.8254V31.7078C49.8254 32.2254 50.2448 32.6448 50.7624 32.6448C51.28 32.6448 51.6994 32.2254 51.6994 31.7078V25.3697H52.6582C54.5018 25.3697 55.7867 25.2933 56.5127 25.1406C57.2388 24.9878 57.8521 24.726 58.3527 24.3563C58.8533 23.9866 59.2376 23.5175 59.5066 22.9515C59.7745 22.3854 59.9103 21.7466 59.9103 21.0351C59.9103 20.3236 59.7721 19.6848 59.497 19.1188C59.2206 18.5527 58.84 18.0812 58.3539 17.703L58.3527 17.7042ZM57.177 22.8654C56.646 23.3588 55.6485 23.5915 54.1818 23.5624H51.6994V18.5309H54.3127C56.7527 18.5309 57.9721 19.3588 57.9721 21.0133C57.9721 21.7539 57.7066 22.3709 57.177 22.8654Z" fill="white"/>
<path d="M63.4387 16.7018C62.9211 16.7018 62.5017 17.1212 62.5017 17.6388V31.7078C62.5017 32.2254 62.9211 32.6448 63.4387 32.6448C63.9563 32.6448 64.3756 32.2254 64.3756 31.7078V17.6388C64.3756 17.1212 63.9563 16.7018 63.4387 16.7018Z" fill="white"/>
<path d="M75.5478 18.1394C77.5078 18.1394 79.1902 18.8509 80.5975 20.2752C80.9272 20.6085 81.4533 20.6448 81.8254 20.3588H81.8278C82.2545 20.0279 82.3212 19.3976 81.9587 18.9988C81.269 18.24 80.4642 17.6376 79.5454 17.1927C78.3333 16.6036 76.9612 16.3103 75.429 16.3103C73.8969 16.3103 72.4702 16.6739 71.149 17.4C69.8278 18.1261 68.7927 19.1285 68.046 20.4048C67.2981 21.6824 66.9236 23.0764 66.9236 24.5867C66.9236 27.0267 67.7296 29.0448 69.3406 30.6424C70.9527 32.24 73.0218 33.0376 75.5478 33.0376C78.0739 33.0376 80.2909 32.1939 81.9284 30.5067C82.3139 30.1103 82.2521 29.4594 81.8121 29.1236C81.4448 28.8436 80.9272 28.8776 80.5987 29.2024C79.2109 30.5685 77.6145 31.2521 75.8096 31.2521C73.7624 31.2521 72.0957 30.6315 70.8109 29.3891C69.526 28.1479 68.8836 26.6012 68.8836 24.7503C68.8836 22.8994 69.5406 21.3345 70.8545 20.057C72.1684 18.7794 73.7321 18.1406 75.5478 18.1406V18.1394Z" fill="white"/>
<path d="M32.2413 20.3588C31.8692 20.646 31.3419 20.6097 31.0122 20.2751C30.1692 19.4202 29.2254 18.8234 28.1819 18.4822L27.5637 16.4448C27.6074 16.4521 27.6522 16.4606 27.6958 16.4679C28.5043 16.6109 29.2583 16.8521 29.9601 17.1927C30.8789 17.6388 31.6825 18.2412 32.3722 18.9988C32.7358 19.3976 32.668 20.0291 32.2413 20.3588Z" fill="white"/>
<path d="M18.4606 20.4036C19.0703 19.3624 19.9757 18.3903 20.8666 17.8315C21.7575 17.2727 22.2424 17.0058 23.1345 16.7224C23.4444 16.624 23.6678 16.5673 23.9393 16.5091L24.063 16.4836C24.1987 16.8497 24.4109 17.3649 24.8072 18.2327C24.7733 18.2376 24.7393 18.2436 24.7054 18.2497C23.4145 18.4824 22.269 19.0836 21.269 20.0558C19.9551 21.3333 19.2981 22.8982 19.2981 24.7491C19.2981 26.6 19.9406 28.1467 21.2254 29.3879C22.5103 30.6303 24.1769 31.2509 26.2242 31.2509C28.029 31.2509 29.6254 30.5673 31.0133 29.2012C31.3418 28.8764 31.8593 28.8424 32.2266 29.1224C32.6666 29.4582 32.7284 30.1091 32.343 30.5055C30.7054 32.1927 28.4884 33.0364 25.9624 33.0364C23.4363 33.0364 21.3672 32.2388 19.7551 30.6412C18.1442 29.0436 17.3381 27.0255 17.3381 24.5855C17.3381 23.0752 17.7127 21.6812 18.4606 20.4036Z" fill="white"/>
<path d="M33.3963 10.1006C33.3891 10.0824 33.3794 10.0618 33.3721 10.0436C32.6351 8.5709 31.8375 7.19272 31.0691 6.48484C30.7636 6.20242 30.143 5.71393 29.5563 5.49939L24.1515 3.75757C23.5866 3.57575 23.086 3.23272 22.7127 2.7709L20.6909 0.271507C20.4363 -0.0424321 19.9757 -0.0909169 19.6618 0.163629L14.1854 4.59636C13.8788 4.84484 13.8242 5.29211 14.063 5.60726L15.4109 7.38423C15.7697 7.85817 15.9842 8.42666 16.0254 9.01939L16.1369 10.6133C16.1369 10.6133 16.3236 13.7976 17.2994 14.6921C18.7236 15.9964 19.7818 16.9382 20.6363 17.7176C20.6363 17.7176 21.5309 16.8861 23.1491 16.4061C23.1382 16.1164 23.0412 15.8715 22.9103 15.6461C22.6909 15.2691 19.5782 12.4448 19.5782 12.4448L19.7006 12.3018L20.2703 12.7903L23.1721 13.7757L24.3212 16.4351C24.3212 16.4351 24.9818 17.9394 25.1636 18.4242C25.3333 18.7879 25.7688 19.8235 26.4242 19.8788C26.7765 19.9085 27.2572 19.8883 27.5757 19.6364C27.9234 19.3614 28.0896 18.8354 27.9757 18.4242C27.7575 17.6364 27.5742 16.9697 27.3842 16.4145C26.823 14.7745 26.0133 12.5539 25.4339 11.7697C24.8351 10.96 24.0085 10.7103 23.3442 10.5103C23.1636 10.4557 22.9927 10.4048 22.8472 10.3467L22.9163 10.1721C23.0545 10.2267 23.2218 10.2764 23.3988 10.3297C24.0533 10.5273 24.9491 10.7976 25.5854 11.657C26.1297 12.3927 26.8606 14.3333 27.4145 15.9224C28.1951 15.5345 28.7139 15.0351 28.9382 14.4279C29.2424 13.5988 28.9006 12.8606 28.8982 12.8533C28.3721 11.6885 27.886 10.7648 27.2242 10.0364C26.5357 9.27757 25.7018 9.06423 25.0315 8.89211C24.8606 8.84848 24.6994 8.80726 24.5575 8.75999L24.6169 8.5806C24.7527 8.62545 24.9103 8.66666 25.0775 8.70908C25.7357 8.87878 26.6363 9.10908 27.3624 9.90908C28.04 10.6557 28.5345 11.5939 29.0679 12.7733C29.0824 12.8036 29.4145 13.5357 29.1406 14.3976C29.9697 14.0533 30.5321 13.577 30.7963 12.9709C31.1479 12.1624 30.8509 11.4012 30.8472 11.3939C30.3879 10.2012 29.9551 9.25211 29.3369 8.48726C28.6933 7.69211 27.8739 7.43029 27.2145 7.2206C27.046 7.16726 26.886 7.11636 26.7479 7.0606L26.8169 6.88605C26.9503 6.93817 27.1054 6.99029 27.2715 7.0412C29.9975 7.87999 30.5163 9.52242 30.9612 10.1551C31.2569 10.5757 31.5369 10.9733 31.7491 11.1854C32.12 11.5564 32.6763 11.4436 33.0363 11.1854C33.3382 10.9685 33.6048 10.5564 33.4012 10.097L33.3963 10.1006Z" fill="white"/>
</g>
<defs>
<clipPath id="clip0_10832_7148">
<rect width="82.4242" height="40" fill="white"/>
</clipPath>
</defs>
</svg>
